<svg width="868" height="1515" viewBox="0 0 868 1515" fill="none" xmlns="http://www.w3.org/2000/svg">
<path d="M-201.309 1108.4L316.683 406.888M-201.309 1108.4L-132.597 1159.14M-201.309 1108.4L-270.02 1057.66M316.683 406.888L385.394 457.624M316.683 406.888L247.971 356.152M-492.004 351.756L607.378 1163.53M-492.004 351.756L-427.255 264.067M-492.004 351.756L-556.753 439.445M607.378 1163.53L672.127 1075.84M607.378 1163.53L542.629 1251.22M736.876 988.154L-362.506 176.378M736.876 988.154L801.625 900.465M736.876 988.154L672.127 1075.84M-362.506 176.378L-297.758 88.689M-362.506 176.378L-427.255 264.067M41.837 203.944L-476.154 905.456M41.837 203.944L110.548 254.68M41.837 203.944L-26.8744 153.208M-476.154 905.456L-407.443 956.192M-476.154 905.456L-544.866 854.72M-621.502 527.134L477.88 1338.91M-621.502 527.134L-556.753 439.445M-621.502 527.134L-686.251 614.823M477.88 1338.91L542.629 1251.22M477.88 1338.91L413.131 1426.6M73.5367 1311.34L591.528 609.832M73.5367 1311.34L142.248 1362.08M73.5367 1311.34L4.82532 1260.61M591.528 609.832L660.239 660.568M591.528 609.832L522.817 559.096M728.951 711.304L210.96 1412.82M728.951 711.304L797.662 762.04M728.951 711.304L660.239 660.568M210.96 1412.82L279.671 1463.55M210.96 1412.82L142.248 1362.08M-63.8861 1209.87L454.105 508.36M-63.8861 1209.87L4.82532 1260.61M-63.8861 1209.87L-132.597 1159.14M454.105 508.36L522.817 559.096M454.105 508.36L385.394 457.624M179.26 305.416L-338.732 1006.93M179.26 305.416L247.971 356.152M179.26 305.416L110.548 254.68M-338.732 1006.93L-270.02 1057.66M-338.732 1006.93L-407.443 956.192M-613.577 803.984L-95.5858 102.472M-613.577 803.984L-544.866 854.72M-613.577 803.984L-682.289 753.248M-95.5858 102.472L-26.8744 153.208M-95.5858 102.472L-164.297 51.736M-297.758 88.689L-233.009 1.00001L-164.297 51.736M-297.758 88.689L801.625 900.465M801.625 900.465L866.374 812.776L797.662 762.04M672.127 1075.84L-427.255 264.067M-556.753 439.445L542.629 1251.22M-686.251 614.823L-751 702.512L-682.289 753.248M-686.251 614.823L413.131 1426.6M413.131 1426.6L348.382 1514.29L279.671 1463.55M279.671 1463.55L797.662 762.04M142.248 1362.08L660.239 660.568M4.82532 1260.61L522.817 559.096M-132.597 1159.14L385.394 457.624M-270.02 1057.66L247.971 356.152M-407.443 956.192L110.548 254.68M-544.866 854.72L-26.8744 153.208M-682.289 753.248L-164.297 51.736" stroke="url(#paint0_linear_19_398)"/>
<defs>
<linearGradient id="paint0_linear_19_398" x1="-608.5" y1="1004.18" x2="612.48" y2="1094.75" gradientUnits="userSpaceOnUse">
<stop stop-color="white" stop-opacity="0.08"/>
<stop offset="1" stop-color="white" stop-opacity="0"/>
</linearGradient>
</defs>
</svg>
