<svg width="1146" height="211" viewBox="0 0 1146 211" fill="none" xmlns="http://www.w3.org/2000/svg">
<g filter="url(#filter0_f_127_80)">
<path d="M2 105H1143.5" stroke="url(#paint0_linear_127_80)"/>
</g>
<path d="M2 105H1143.5" stroke="url(#paint1_linear_127_80)"/>
<g filter="url(#filter1_f_127_80)">
<circle cx="574.5" cy="105.5" r="10.5" fill="#817CC9"/>
</g>
<g filter="url(#filter2_f_127_80)">
<circle cx="574.5" cy="105.5" r="10.5" fill="white"/>
</g>
<g filter="url(#filter3_f_127_80)">
<path d="M713 105.5C582.394 107.688 593.944 123 576.458 123C558.971 123 572.5 107.688 432 105.5C572.5 100.031 558.971 88 576.458 88C593.944 88 582.394 101.125 713 105.5Z" fill="white" fill-opacity="0.11"/>
</g>
<g filter="url(#filter4_f_127_80)">
<path d="M609.5 105C576.5 106 579.418 113 575 113C570.582 113 574 106 538.5 105C574 102.5 570.582 97 575 97C579.418 97 576.5 103 609.5 105Z" fill="white"/>
</g>
<g filter="url(#filter5_f_127_80)">
<path d="M634 105C578.69 106 583.581 113 576.176 113C568.771 113 574.5 106 515 105C574.5 102.5 568.771 97 576.176 97C583.581 97 578.69 103 634 105Z" fill="#817CC9"/>
</g>
<g filter="url(#filter6_f_127_80)">
<path d="M612 105.5C577.141 106.688 580.224 115 575.556 115C570.889 115 574.5 106.688 537 105.5C574.5 102.531 570.889 96 575.556 96C580.224 96 577.141 103.125 612 105.5Z" fill="white"/>
</g>
<path d="M609.5 105C576.5 106 579.418 113 575 113C570.582 113 574 106 538.5 105C574 102.5 570.582 97 575 97C579.418 97 576.5 103 609.5 105Z" fill="white"/>
<g filter="url(#filter7_f_127_80)">
<circle cx="574.5" cy="105.5" r="10.5" fill="white"/>
</g>
<g filter="url(#filter8_d_127_80)">
<circle cx="574.5" cy="105.5" r="10.5" fill="white"/>
</g>
<circle cx="574.5" cy="105.5" r="10.5" fill="white"/>
<defs>
<filter id="filter0_f_127_80" x="0" y="102.5" width="1145.5" height="5" filterUnits="userSpaceOnUse" color-interpolation-filters="sRGB">
<feFlood flood-opacity="0" result="BackgroundImageFix"/>
<feBlend mode="normal" in="SourceGraphic" in2="BackgroundImageFix" result="shape"/>
<feGaussianBlur stdDeviation="1" result="effect1_foregroundBlur_127_80"/>
</filter>
<filter id="filter1_f_127_80" x="543.6" y="74.6" width="61.8" height="61.8" filterUnits="userSpaceOnUse" color-interpolation-filters="sRGB">
<feFlood flood-opacity="0" result="BackgroundImageFix"/>
<feBlend mode="normal" in="SourceGraphic" in2="BackgroundImageFix" result="shape"/>
<feGaussianBlur stdDeviation="10.2" result="effect1_foregroundBlur_127_80"/>
</filter>
<filter id="filter2_f_127_80" x="553.7" y="84.7" width="41.6" height="41.6" filterUnits="userSpaceOnUse" color-interpolation-filters="sRGB">
<feFlood flood-opacity="0" result="BackgroundImageFix"/>
<feBlend mode="normal" in="SourceGraphic" in2="BackgroundImageFix" result="shape"/>
<feGaussianBlur stdDeviation="5.15" result="effect1_foregroundBlur_127_80"/>
</filter>
<filter id="filter3_f_127_80" x="408.5" y="64.5" width="328" height="82" filterUnits="userSpaceOnUse" color-interpolation-filters="sRGB">
<feFlood flood-opacity="0" result="BackgroundImageFix"/>
<feBlend mode="normal" in="SourceGraphic" in2="BackgroundImageFix" result="shape"/>
<feGaussianBlur stdDeviation="11.75" result="effect1_foregroundBlur_127_80"/>
</filter>
<filter id="filter4_f_127_80" x="532.3" y="90.8" width="83.4" height="28.4" filterUnits="userSpaceOnUse" color-interpolation-filters="sRGB">
<feFlood flood-opacity="0" result="BackgroundImageFix"/>
<feBlend mode="normal" in="SourceGraphic" in2="BackgroundImageFix" result="shape"/>
<feGaussianBlur stdDeviation="3.1" result="effect1_foregroundBlur_127_80"/>
</filter>
<filter id="filter5_f_127_80" x="490.6" y="72.6" width="167.8" height="64.8" filterUnits="userSpaceOnUse" color-interpolation-filters="sRGB">
<feFlood flood-opacity="0" result="BackgroundImageFix"/>
<feBlend mode="normal" in="SourceGraphic" in2="BackgroundImageFix" result="shape"/>
<feGaussianBlur stdDeviation="12.2" result="effect1_foregroundBlur_127_80"/>
</filter>
<filter id="filter6_f_127_80" x="536" y="95" width="77" height="21" filterUnits="userSpaceOnUse" color-interpolation-filters="sRGB">
<feFlood flood-opacity="0" result="BackgroundImageFix"/>
<feBlend mode="normal" in="SourceGraphic" in2="BackgroundImageFix" result="shape"/>
<feGaussianBlur stdDeviation="0.5" result="effect1_foregroundBlur_127_80"/>
</filter>
<filter id="filter7_f_127_80" x="560" y="91" width="29" height="29" filterUnits="userSpaceOnUse" color-interpolation-filters="sRGB">
<feFlood flood-opacity="0" result="BackgroundImageFix"/>
<feBlend mode="normal" in="SourceGraphic" in2="BackgroundImageFix" result="shape"/>
<feGaussianBlur stdDeviation="2" result="effect1_foregroundBlur_127_80"/>
</filter>
<filter id="filter8_d_127_80" x="469.1" y="0.0999985" width="210.8" height="210.8" filterUnits="userSpaceOnUse" color-interpolation-filters="sRGB">
<feFlood flood-opacity="0" result="BackgroundImageFix"/>
<feColorMatrix in="SourceAlpha" type="matrix" values="0 0 0 0 0 0 0 0 0 0 0 0 0 0 0 0 0 0 127 0" result="hardAlpha"/>
<feMorphology radius="26" operator="dilate" in="SourceAlpha" result="effect1_dropShadow_127_80"/>
<feOffset/>
<feGaussianBlur stdDeviation="34.45"/>
<feComposite in2="hardAlpha" operator="out"/>
<feColorMatrix type="matrix" values="0 0 0 0 1 0 0 0 0 1 0 0 0 0 1 0 0 0 0.25 0"/>
<feBlend mode="normal" in2="BackgroundImageFix" result="effect1_dropShadow_127_80"/>
<feBlend mode="normal" in="SourceGraphic" in2="effect1_dropShadow_127_80" result="shape"/>
</filter>
<linearGradient id="paint0_linear_127_80" x1="2" y1="105" x2="1144" y2="105" gradientUnits="userSpaceOnUse">
<stop stop-opacity="0"/>
<stop offset="0.501262" stop-color="white"/>
<stop offset="1" stop-opacity="0"/>
</linearGradient>
<linearGradient id="paint1_linear_127_80" x1="2" y1="105" x2="1144" y2="105" gradientUnits="userSpaceOnUse">
<stop stop-opacity="0"/>
<stop offset="0.501262" stop-color="white"/>
<stop offset="1" stop-opacity="0"/>
</linearGradient>
</defs>
</svg>
