<svg width="136" height="84" viewBox="0 0 136 84" fill="none" xmlns="http://www.w3.org/2000/svg">
<g filter="url(#filter0_d_128_88)">
<path d="M28.5698 28.75H32.4698L38.6198 45.04C38.7998 45.52 39.1298 45.73 39.6098 45.73C40.0898 45.73 40.3898 45.52 40.5998 45.04L47.0498 28.75H50.9798L43.8398 46.75C43.0898 48.64 41.7098 49.36 39.6098 49.36C37.6298 49.36 36.0998 48.73 35.3498 46.75L28.5698 28.75ZM57.2374 33.16H62.3674C66.1174 33.16 67.7074 34.96 67.7074 38.02C67.7074 40.93 66.2374 42.58 62.3374 42.58H54.8074V43.72C54.8074 44.98 55.4974 45.91 57.2374 45.91H66.9274V49H57.2374C53.2774 49 51.7174 46.78 51.7174 43.78V38.38C51.7174 35.38 53.2774 33.16 57.2374 33.16ZM54.8074 38.41V40.09H62.2474C63.9574 40.09 64.5874 39.37 64.5874 38.2C64.5874 37 63.8974 36.22 62.3374 36.22H57.2374C55.4974 36.22 54.8074 37.18 54.8074 38.41ZM77.7377 33.16H82.1177C85.8977 33.16 87.9377 35.38 87.9377 39.94V49.06C87.9377 53.56 86.3777 55.33 81.9377 55.33H72.5177V52.27H81.5777C83.9477 52.27 84.7277 51.34 84.7277 49.06V48.34H77.7377C73.5077 48.34 70.8677 45.85 70.8677 40.72C70.8677 35.62 73.5077 33.16 77.7377 33.16ZM74.0777 40.84C74.0777 44.08 75.3077 45.46 78.0377 45.46H84.7277V39.91C84.7277 37.33 83.7377 36.22 81.1877 36.22H78.0377C75.3077 36.22 74.0777 37.6 74.0777 40.84ZM93.0192 33.16H102.529C106.489 33.16 108.049 35.38 108.049 38.38V45.82C108.049 48.1 107.449 49 104.779 49H97.3692C93.6192 49 92.0592 47.17 92.0592 44.17C92.0592 41.29 93.4992 39.61 97.3992 39.61H104.929V38.41C104.929 37.18 104.239 36.22 102.499 36.22H93.0192V33.16ZM104.059 45.91C104.689 45.91 104.929 45.67 104.929 45.1V42.13H97.4592C95.7792 42.13 95.1792 42.82 95.1792 43.99C95.1792 45.16 95.8092 45.91 97.3992 45.91H104.059Z" fill="#817CC9"/>
</g>
<path d="M28.5698 28.75H32.4698L38.6198 45.04C38.7998 45.52 39.1298 45.73 39.6098 45.73C40.0898 45.73 40.3898 45.52 40.5998 45.04L47.0498 28.75H50.9798L43.8398 46.75C43.0898 48.64 41.7098 49.36 39.6098 49.36C37.6298 49.36 36.0998 48.73 35.3498 46.75L28.5698 28.75ZM57.2374 33.16H62.3674C66.1174 33.16 67.7074 34.96 67.7074 38.02C67.7074 40.93 66.2374 42.58 62.3374 42.58H54.8074V43.72C54.8074 44.98 55.4974 45.91 57.2374 45.91H66.9274V49H57.2374C53.2774 49 51.7174 46.78 51.7174 43.78V38.38C51.7174 35.38 53.2774 33.16 57.2374 33.16ZM54.8074 38.41V40.09H62.2474C63.9574 40.09 64.5874 39.37 64.5874 38.2C64.5874 37 63.8974 36.22 62.3374 36.22H57.2374C55.4974 36.22 54.8074 37.18 54.8074 38.41ZM77.7377 33.16H82.1177C85.8977 33.16 87.9377 35.38 87.9377 39.94V49.06C87.9377 53.56 86.3777 55.33 81.9377 55.33H72.5177V52.27H81.5777C83.9477 52.27 84.7277 51.34 84.7277 49.06V48.34H77.7377C73.5077 48.34 70.8677 45.85 70.8677 40.72C70.8677 35.62 73.5077 33.16 77.7377 33.16ZM74.0777 40.84C74.0777 44.08 75.3077 45.46 78.0377 45.46H84.7277V39.91C84.7277 37.33 83.7377 36.22 81.1877 36.22H78.0377C75.3077 36.22 74.0777 37.6 74.0777 40.84ZM93.0192 33.16H102.529C106.489 33.16 108.049 35.38 108.049 38.38V45.82C108.049 48.1 107.449 49 104.779 49H97.3692C93.6192 49 92.0592 47.17 92.0592 44.17C92.0592 41.29 93.4992 39.61 97.3992 39.61H104.929V38.41C104.929 37.18 104.239 36.22 102.499 36.22H93.0192V33.16ZM104.059 45.91C104.689 45.91 104.929 45.67 104.929 45.1V42.13H97.4592C95.7792 42.13 95.1792 42.82 95.1792 43.99C95.1792 45.16 95.8092 45.91 97.3992 45.91H104.059Z" fill="white"/>
<defs>
<filter id="filter0_d_128_88" x="0.669825" y="0.85" width="135.279" height="82.38" filterUnits="userSpaceOnUse" color-interpolation-filters="sRGB">
<feFlood flood-opacity="0" result="BackgroundImageFix"/>
<feColorMatrix in="SourceAlpha" type="matrix" values="0 0 0 0 0 0 0 0 0 0 0 0 0 0 0 0 0 0 127 0" result="hardAlpha"/>
<feOffset/>
<feGaussianBlur stdDeviation="13.95"/>
<feComposite in2="hardAlpha" operator="out"/>
<feColorMatrix type="matrix" values="0 0 0 0 0.505882 0 0 0 0 0.486275 0 0 0 0 0.788235 0 0 0 1 0"/>
<feBlend mode="normal" in2="BackgroundImageFix" result="effect1_dropShadow_128_88"/>
<feBlend mode="normal" in="SourceGraphic" in2="effect1_dropShadow_128_88" result="shape"/>
</filter>
</defs>
</svg>
