<svg width="81" height="28" viewBox="0 0 81 28" fill="none" xmlns="http://www.w3.org/2000/svg">
<path d="M0.57 0.75H4.47L10.62 17.04C10.8 17.52 11.13 17.73 11.61 17.73C12.09 17.73 12.39 17.52 12.6 17.04L19.05 0.75H22.98L15.84 18.75C15.09 20.64 13.71 21.36 11.61 21.36C9.63 21.36 8.1 20.73 7.35 18.75L0.57 0.75ZM29.2376 5.16H34.3676C38.1176 5.16 39.7076 6.96 39.7076 10.02C39.7076 12.93 38.2376 14.58 34.3376 14.58H26.8076V15.72C26.8076 16.98 27.4976 17.91 29.2376 17.91H38.9276V21H29.2376C25.2776 21 23.7176 18.78 23.7176 15.78V10.38C23.7176 7.38 25.2776 5.16 29.2376 5.16ZM26.8076 10.41V12.09H34.2476C35.9576 12.09 36.5876 11.37 36.5876 10.2C36.5876 9 35.8976 8.22 34.3376 8.22H29.2376C27.4976 8.22 26.8076 9.18 26.8076 10.41ZM49.7379 5.16H54.1179C57.8979 5.16 59.9379 7.38 59.9379 11.94V21.06C59.9379 25.56 58.3779 27.33 53.9379 27.33H44.5179V24.27H53.5779C55.9479 24.27 56.7279 23.34 56.7279 21.06V20.34H49.7379C45.5079 20.34 42.8679 17.85 42.8679 12.72C42.8679 7.62 45.5079 5.16 49.7379 5.16ZM46.0779 12.84C46.0779 16.08 47.3079 17.46 50.0379 17.46H56.7279V11.91C56.7279 9.33 55.7379 8.22 53.1879 8.22H50.0379C47.3079 8.22 46.0779 9.6 46.0779 12.84ZM65.0194 5.16H74.5294C78.4894 5.16 80.0494 7.38 80.0494 10.38V17.82C80.0494 20.1 79.4494 21 76.7794 21H69.3694C65.6194 21 64.0594 19.17 64.0594 16.17C64.0594 13.29 65.4994 11.61 69.3994 11.61H76.9294V10.41C76.9294 9.18 76.2394 8.22 74.4994 8.22H65.0194V5.16ZM76.0594 17.91C76.6894 17.91 76.9294 17.67 76.9294 17.1V14.13H69.4594C67.7794 14.13 67.1794 14.82 67.1794 15.99C67.1794 17.16 67.8094 17.91 69.3994 17.91H76.0594Z" fill="white"/>
</svg>
