<svg width="1440" height="756" viewBox="0 0 1440 756" fill="none" xmlns="http://www.w3.org/2000/svg">
<path d="M720 755L720 1M720 755H810M720 755H630M720 1H810M720 1H630M0 378L1440 378M0 378L0 283.75M0 378L0 472.25M1440 378V283.75M1440 378V472.25M1440 189.5L0 189.5M1440 189.5V95.25M1440 189.5V283.75M0 189.5L0 95.25M0 189.5L0 283.75M360 1L360 755M360 1H450M360 1H270M360 755H450M360 755H270M0 566.5L1440 566.5M0 566.5L0 472.25M0 566.5L0 660.75M1440 566.5V472.25M1440 566.5V660.75M1080 755V1M1080 755H1170M1080 755H990M1080 1H1170M1080 1H990M1260 1V755M1260 1H1350M1260 1H1170M1260 755H1350M1260 755H1170M900 755L900 1M900 755H990M900 755H810M900 1H990M900 1H810M540 1L540 755M540 1H630M540 1L450 1M540 755H630M540 755L450 755M180 755L180 1M180 755H270M180 755H90M180 1H270M180 1H90M0 95.25L0 1H90M0 95.25L1440 95.25M1440 95.25V1H1350M1440 283.75L0 283.75M0 472.25L1440 472.25M0 660.75L0 755H90M0 660.75L1440 660.75M1440 660.75V755H1350M1350 755V1M1170 755V1M990 755L990 1M810 755V378L810 1M630 755L630 1M450 755L450 1M270 755L270 1M90 755L90 1" stroke="url(#paint0_linear_19_430)"/>
<defs>
<linearGradient id="paint0_linear_19_430" x1="-169.5" y1="378" x2="1519.5" y2="369.651" gradientUnits="userSpaceOnUse">
<stop stop-color="white" stop-opacity="0.11"/>
<stop offset="0.255" stop-color="white" stop-opacity="0"/>
<stop offset="0.78" stop-color="white" stop-opacity="0"/>
<stop offset="1" stop-color="white" stop-opacity="0.11"/>
</linearGradient>
</defs>
</svg>
